<svg xmlns="http://www.w3.org/2000/svg" fill="#ff6b00" viewBox="0 0 20 20"><path d="m7.82 19.762-.113-.026a6.229 6.229 0 0 1-.281-.068l.069.016.326.078a9.726 9.726 0 0 1-1.191-.342l.069.022-.068-.024a8.975 8.975 0 0 1-.748-.3l.062.025-.066-.03A10.023 10.023 0 0 1 3.3 17.422l.009.008a9.978 9.978 0 0 1-1.581-1.808l-.022-.034-.052-.082A9.832 9.832 0 0 1 .05 10.982l-.003-.04-.002.001a9.737 9.737 0 0 1-.011-1.769l-.002.036.012-.122a9.9 9.9 0 0 1 1.199-3.92l-.026.051.038-.07c.156-.281.295-.506.441-.724l-.023.037.063-.092c.235-.347.49-.676.764-.986A10.112 10.112 0 0 1 5.746.945l.061-.026.22-.098.012-.005c.093-.04.187-.08.282-.117l-.294.122a9.77 9.77 0 0 1 4.356-.813l-.019-.001L10 0c.777.001 1.534.088 2.261.254l-.068-.013a9.836 9.836 0 0 1 1.843.605l-.063-.025.22.098c1.3.611 2.399 1.442 3.297 2.456l.009.011v-.002a9.898 9.898 0 0 1 1.257 1.784l.026.051a9.768 9.768 0 0 1 1.173 3.831l.003.039.008.12a9.922 9.922 0 0 1-1.385 5.925l.025-.045h.002a9.41 9.41 0 0 1-.26.418c-.02.026-.037.053-.056.08a9.967 9.967 0 0 1-1.834 2.048l-.015.012a9.968 9.968 0 0 1-2.26 1.441l-.062.026-.066.029c-.225.1-.453.192-.686.275l-.068.024c-.298.11-.673.22-1.057.308l-.065.012c-.655.152-1.407.239-2.179.239s-1.525-.087-2.247-.252l.068.013zM13.076 1.54 10.625 3.5a.993.993 0 0 1-1.15.07l.004.002-.104-.073-2.45-1.96a9.067 9.067 0 0 0-4.004 2.904l-.015.019 1.107 2.934a.997.997 0 0 1-.283 1.111l-.001.001-.101.076-2.62 1.724a8.923 8.923 0 0 0 1.555 4.758l-.02-.031 3.133-.146.047-.001a1 1 0 0 1 .921.61l.002.007.04.12.83 3.026a8.799 8.799 0 0 0 2.478.348h.014c.883 0 1.736-.127 2.542-.364l-.064.016.83-3.026c.112-.402.459-.698.88-.733h.004l.126-.002 3.133.146a8.873 8.873 0 0 0 1.534-4.712v-.015l-2.619-1.724a1 1 0 0 1-.421-1.074l-.001.007.037-.12 1.107-2.935a9.065 9.065 0 0 0-3.958-2.904l-.062-.02zm-2.487 4.888 2.628 1.91a1 1 0 0 1 .361 1.125l.002-.007-1.004 3.09a1.002 1.002 0 0 1-.951.691H8.376a1 1 0 0 1-.949-.684l-.002-.007-1.004-3.09a1 1 0 0 1 .36-1.116l.003-.002 2.628-1.91a.996.996 0 0 1 1.179.002l-.003-.002z"/></svg>