<?xml version="1.0"?>
<svg width="56" height="56" xmlns="http://www.w3.org/2000/svg" xmlns:svg="http://www.w3.org/2000/svg">
 <g class="layer">
  <title>Layer 1</title>
  <path d="m42.21,42.3l-3.13,0l0,3.64c0,4.37 -1.75,6.57 -5.28,6.57l-25.48,0c-3.49,0 -5.28,-2.2 -5.28,-6.57l0,-22.51c0,-4.34 1.79,-6.55 5.28,-6.55l3.13,0l0,-3.43c0,-4.36 1.76,-6.56 5.26,-6.56l25.5,0c3.52,0 5.28,2.2 5.28,6.56l0,22.3c0,4.37 -1.76,6.55 -5.28,6.55zm-0.05,-3.41c1.67,0 2.62,-1.12 2.62,-3.33l0,-21.92c0,-2.2 -0.94,-3.34 -2.62,-3.34l-25.41,0c-1.66,0 -2.6,1.14 -2.6,3.34l0,3.24l19.65,0c3.53,0 5.28,2.19 5.28,6.55l0,15.46l3.08,0zm-8.39,10.21c1.68,0 2.6,-1.15 2.6,-3.35l0,-22.13c0,-2.2 -0.92,-3.33 -2.6,-3.33l-25.41,0c-1.66,0 -2.62,1.13 -2.62,3.33l0,22.13c0,2.2 0.96,3.35 2.62,3.35l25.41,0z" id="svg_1"/>
 </g>
</svg>