<svg xmlns="http://www.w3.org/2000/svg" fill="#aaa" viewBox="0 0 21 20"><path d="M17.542 0a3 3 0 0 1 3 3v14a3 3 0 0 1-3 3h-14a3 3 0 0 1-3-3V3a3 3 0 0 1 3-3h14zm0 1h-14a2 2 0 0 0-2 2v14a2 2 0 0 0 2 2h14a2 2 0 0 0 2-2V3a2 2 0 0 0-2-2zm-1.5 14a.5.5 0 0 1 0 1h-11a.5.5 0 0 1 0-1zm0-2a.5.5 0 0 1 0 1h-11a.5.5 0 0 1 0-1zm0-2a.5.5 0 0 1 0 1h-11a.5.5 0 0 1 0-1zm-7.5-7a1 1 0 0 1 1 1v3a1 1 0 0 1-1 1h-3a1 1 0 0 1-1-1V5a1 1 0 0 1 1-1h3zm7.5 4a.5.5 0 0 1 0 1h-4a.5.5 0 0 1 0-1zm-7.5-3h-3v3h3V5zm7.5 1a.5.5 0 0 1 0 1h-4a.5.5 0 0 1 0-1zm0-2a.5.5 0 0 1 0 1h-4a.5.5 0 0 1 0-1z"/></svg>